<?xml version="1.0" encoding="UTF-8"?>
<svg version="1.1" xmlns="http://www.w3.org/2000/svg" width="270" height="97">
<path d="M0 0 C0 0.66 0 1.32 0 2 C0.66 2 1.32 2 2 2 C2 2.66 2 3.32 2 4 C2.66 4 3.32 4 4 4 C2.25 8.875 2.25 8.875 0 10 C-1.35032798 10.13845858 -2.70625639 10.22503885 -4.0625 10.28125 C-4.85914063 10.31863281 -5.65578125 10.35601562 -6.4765625 10.39453125 C-8.15885417 10.46484375 -9.84114583 10.53515625 -11.5234375 10.60546875 C-12.32007813 10.64285156 -13.11671875 10.68023437 -13.9375 10.71875 C-14.66839844 10.74904297 -15.39929688 10.77933594 -16.15234375 10.81054688 C-18.0938577 10.89957573 -18.0938577 10.89957573 -20 12 C-20.33 12.99 -20.66 13.98 -21 15 C-20.13117188 14.95359375 -19.26234375 14.9071875 -18.3671875 14.859375 C-6.86578162 14.499152 -6.86578162 14.499152 -2 19 C-1.071875 19.721875 -0.14375 20.44375 0.8125 21.1875 C3.75096314 24.96552404 4.56171029 28.23842508 4 33 C1.60339539 36.63356183 -0.31662454 37.74689798 -4.375 39.25 C-5.90932371 39.54169652 -7.4532402 39.78373571 -9 40 C-10.17820313 40.18046875 -11.35640625 40.3609375 -12.5703125 40.546875 C-23.92925422 41.85665357 -23.92925422 41.85665357 -28.875 38.3125 C-31.42169648 36.09103099 -32.5587607 34.38046234 -33 31 C-31.31699331 29.31699331 -29.17991273 29.77190923 -26.87109375 29.68359375 C-25.83662109 29.64169922 -24.80214844 29.59980469 -23.73632812 29.55664062 C-22.64771484 29.51732422 -21.55910156 29.47800781 -20.4375 29.4375 C-18.7987793 29.37272461 -18.7987793 29.37272461 -17.12695312 29.30664062 C-14.41810436 29.20017932 -11.70916008 29.09816484 -9 29 C-8.67 28.01 -8.34 27.02 -8 26 C-8.83402344 26.08121094 -9.66804688 26.16242188 -10.52734375 26.24609375 C-16.66766926 26.59073974 -21.08060268 26.6687203 -26.125 22.875 C-29.36419422 19.90970823 -31.74767727 17.29367793 -33 13 C-32.90739783 7.72167611 -31.7930386 4.68767642 -28 1 C-20.45355158 -3.66104167 -8.32778988 -0.73096588 0 0 Z " fill="#18A562" transform="translate(233,43)"/>
<path d="M0 0 C1.6097168 0.00966797 1.6097168 0.00966797 3.25195312 0.01953125 C4.9312793 0.04466797 4.9312793 0.04466797 6.64453125 0.0703125 C7.77568359 0.07933594 8.90683594 0.08835938 10.07226562 0.09765625 C12.86739953 0.12124388 15.6621097 0.1541595 18.45703125 0.1953125 C21.09259377 5.90300312 20.56114288 10.97205544 20.26953125 17.1328125 C20.23794922 18.20466797 20.20636719 19.27652344 20.17382812 20.38085938 C19.85991528 27.72823976 19.00098395 32.53303642 13.76953125 38.0078125 C9.86983523 40.58308346 7.10301905 41.49417721 2.45703125 41.1953125 C-3.62769553 39.3481633 -10.18515042 35.84993091 -13.71484375 30.37890625 C-16.48649727 23.90735675 -16.08080618 17.17786552 -14.85546875 10.3828125 C-12.07299018 3.62536455 -7.22918843 -0.07649935 0 0 Z M-1.54296875 11.1953125 C-3.72514437 14.51039463 -3.81235643 17.34634894 -3.79296875 21.2578125 C-3.798125 22.30066406 -3.80328125 23.34351563 -3.80859375 24.41796875 C-3.74369452 27.40660235 -3.74369452 27.40660235 -1.54296875 30.1953125 C2.06989301 30.75731322 3.9185996 30.50264738 7.10546875 28.68359375 C10.27375885 25.33110074 10.23459804 22.33913387 10.26953125 17.9453125 C10.29466797 17.20023438 10.31980469 16.45515625 10.34570312 15.6875 C10.40436227 13.85733457 10.43361205 12.02626797 10.45703125 10.1953125 C4.21530041 9.05639991 4.21530041 9.05639991 -1.54296875 11.1953125 Z " fill="#1DAD6A" transform="translate(93.54296875,42.8046875)"/>
<path d="M0 0 C3.14921568 2.27164761 4.73966416 3.65294356 5.49023438 7.53662109 C5.68089819 10.59390519 5.74622527 13.62430692 5.75 16.6875 C5.78307111 18.774796 5.81936526 20.86204422 5.859375 22.94921875 C5.86420898 23.87049561 5.86904297 24.79177246 5.87402344 25.7409668 C5.85211041 28.03481986 5.85211041 28.03481986 7 30 C11.70149229 30.44110359 11.70149229 30.44110359 15.875 28.6875 C17.83339177 25.74991235 18.13117051 23.1195574 18.2109375 19.69140625 C18.25347656 18.44713867 18.25347656 18.44713867 18.296875 17.17773438 C18.34883529 15.43836374 18.39314335 13.69874718 18.4296875 11.95898438 C18.66536019 5.63019064 18.66536019 5.63019064 20.37109375 2.41796875 C22 1 22 1 24.6875 0.75 C25.450625 0.8325 26.21375 0.915 27 1 C27 1.66 27 2.32 27 3 C27.66 3.33 28.32 3.66 29 4 C31.31636306 6.31636306 30.24969182 12.53441105 30.25097656 15.77807617 C30.14712913 23.74364646 29.33230206 31.23822248 25.0625 38.125 C20.96087862 41.85374671 17.24502064 42.62073006 11.80078125 42.5078125 C5.80082529 41.41995438 0.27202231 37.81707817 -3.546875 33.08203125 C-6.63854507 27.82843247 -7.18210629 23.13676246 -7.1875 17.1875 C-7.19974609 16.48818359 -7.21199219 15.78886719 -7.22460938 15.06835938 C-7.23697092 10.66352784 -6.78663834 7.03961958 -5 3 C-2.375 1.125 -2.375 1.125 0 0 Z " fill="#0AB865" transform="translate(166,42)"/>
<path d="M0 0 C1.093125 0.00257812 2.18625 0.00515625 3.3125 0.0078125 C4.405625 0.00523438 5.49875 0.00265625 6.625 0 C9.3125 0.1328125 9.3125 0.1328125 10.3125 1.1328125 C10.45443337 4.13612268 10.35486378 7.12498384 10.3125 10.1328125 C13.9425 10.1328125 17.5725 10.1328125 21.3125 10.1328125 C21.291875 8.6684375 21.27125 7.2040625 21.25 5.6953125 C21.22857993 4.17448732 21.24070036 2.65209288 21.3125 1.1328125 C22.3125 0.1328125 22.3125 0.1328125 25 0 C26.093125 0.00257812 27.18625 0.00515625 28.3125 0.0078125 C29.405625 0.00523438 30.49875 0.00265625 31.625 0 C34.3125 0.1328125 34.3125 0.1328125 35.3125 1.1328125 C35.40017112 3.20543326 35.41945873 5.28101544 35.41015625 7.35546875 C35.40693359 8.61552734 35.40371094 9.87558594 35.40039062 11.17382812 C35.39203403 12.51432359 35.38356907 13.85481838 35.375 15.1953125 C35.3699866 16.53971192 35.36542342 17.8841131 35.36132812 19.22851562 C35.34949488 22.52999191 35.33300971 25.83138053 35.3125 29.1328125 C33.16723901 29.32675125 31.02126323 29.51279926 28.875 29.6953125 C27.68003906 29.79972656 26.48507813 29.90414062 25.25390625 30.01171875 C23.79791016 30.07166016 23.79791016 30.07166016 22.3125 30.1328125 C21.3125 29.1328125 21.3125 29.1328125 21.21484375 26.62890625 C21.24739583 23.796875 21.27994792 20.96484375 21.3125 18.1328125 C17.6825 18.4628125 14.0525 18.7928125 10.3125 19.1328125 C10.333125 20.5971875 10.35375 22.0615625 10.375 23.5703125 C10.39642007 25.09113768 10.38429964 26.61353212 10.3125 28.1328125 C9.3125 29.1328125 9.3125 29.1328125 6.37109375 29.23046875 C5.17613281 29.21886719 3.98117188 29.20726563 2.75 29.1953125 C0.95369141 29.18177734 0.95369141 29.18177734 -0.87890625 29.16796875 C-1.80574219 29.15636719 -2.73257813 29.14476563 -3.6875 29.1328125 C-3.71215881 25.16350261 -3.73034023 21.19422216 -3.74243164 17.22485352 C-3.74747057 15.87360864 -3.75430177 14.52236924 -3.76293945 13.17114258 C-3.77502419 11.23260816 -3.78019828 9.2940345 -3.78515625 7.35546875 C-3.79039307 6.18765869 -3.79562988 5.01984863 -3.80102539 3.81665039 C-3.64817725 0.20318892 -3.61157681 0.17847909 0 0 Z M6.3125 2.1328125 C6.3125 5.4328125 6.3125 8.7328125 6.3125 12.1328125 C6.6425 12.1328125 6.9725 12.1328125 7.3125 12.1328125 C7.3125 8.8328125 7.3125 5.5328125 7.3125 2.1328125 C6.9825 2.1328125 6.6525 2.1328125 6.3125 2.1328125 Z M31.3125 2.1328125 C32.3125 4.1328125 32.3125 4.1328125 32.3125 4.1328125 Z M31.3125 8.1328125 C31.3125 14.4028125 31.3125 20.6728125 31.3125 27.1328125 C31.6425 27.1328125 31.9725 27.1328125 32.3125 27.1328125 C32.3125 20.8628125 32.3125 14.5928125 32.3125 8.1328125 C31.9825 8.1328125 31.6525 8.1328125 31.3125 8.1328125 Z M6.3125 18.1328125 C6.3125 21.1028125 6.3125 24.0728125 6.3125 27.1328125 C6.6425 27.1328125 6.9725 27.1328125 7.3125 27.1328125 C7.3125 24.1628125 7.3125 21.1928125 7.3125 18.1328125 C6.9825 18.1328125 6.6525 18.1328125 6.3125 18.1328125 Z " fill="#050403" transform="translate(164.6875,8.8671875)"/>
<path d="M0 0 C0 0.66 0 1.32 0 2 C0.66 2 1.32 2 2 2 C2 2.66 2 3.32 2 4 C2.66 4 3.32 4 4 4 C2.25 8.875 2.25 8.875 0 10 C-1.52148326 10.08372659 -3.04655778 10.10730027 -4.5703125 10.09765625 C-5.46621094 10.09443359 -6.36210938 10.09121094 -7.28515625 10.08789062 C-8.22230469 10.07951172 -9.15945312 10.07113281 -10.125 10.0625 C-11.54232422 10.05573242 -11.54232422 10.05573242 -12.98828125 10.04882812 C-15.32558387 10.03702357 -17.66276061 10.02055759 -20 10 C-20.33 11.65 -20.66 13.3 -21 15 C-20.34 14.67 -19.68 14.34 -19 14 C-16.7927077 13.92907158 -14.58332548 13.91584975 -12.375 13.9375 C-11.18648437 13.94652344 -9.99796875 13.95554687 -8.7734375 13.96484375 C-7.85820313 13.97644531 -6.94296875 13.98804688 -6 14 C-6 14.99 -6 15.98 -6 17 C-5.01 17.33 -4.02 17.66 -3 18 C-2.125 19.875 -2.125 19.875 -2 22 C-3.01171875 23.62109375 -3.01171875 23.62109375 -5 25 C-7.64996326 25.2172101 -10.05076558 25.28351554 -12.6875 25.1875 C-13.38939453 25.17396484 -14.09128906 25.16042969 -14.81445312 25.14648438 C-16.54329829 25.11120182 -18.27174765 25.05739583 -20 25 C-20.39832031 26.26457031 -20.39832031 26.26457031 -20.8046875 27.5546875 C-21.15789063 28.65039062 -21.51109375 29.74609375 -21.875 30.875 C-22.22304688 31.96554688 -22.57109375 33.05609375 -22.9296875 34.1796875 C-24 37 -24 37 -26 39 C-27.32 39 -28.64 39 -30 39 C-30 38.34 -30 37.68 -30 37 C-30.99 37 -31.98 37 -33 37 C-33.07455949 32.97990543 -33.12879358 28.96008267 -33.16479492 24.93945312 C-33.17981428 23.57382184 -33.20023608 22.20823824 -33.22631836 20.84277344 C-33.26300137 18.87196095 -33.27818551 16.90078592 -33.29296875 14.9296875 C-33.3086792 13.74616699 -33.32438965 12.56264648 -33.34057617 11.34326172 C-32.95618154 7.56985659 -31.99176662 5.21211331 -30 2 C-26.44451599 -0.37032267 -23.62819429 -0.48099446 -19.5 -0.6875 C-18.79037109 -0.7280249 -18.08074219 -0.7685498 -17.34960938 -0.81030273 C-11.50075959 -1.09098941 -5.80509833 -0.79943091 0 0 Z " fill="#3F584A" transform="translate(71,43)"/>
<path d="M0 0 C0.88945312 0.00322266 1.77890625 0.00644531 2.6953125 0.00976562 C4.07589844 0.02233398 4.07589844 0.02233398 5.484375 0.03515625 C6.42023438 0.03966797 7.35609375 0.04417969 8.3203125 0.04882812 C10.62506541 0.06058707 12.92968727 0.07702199 15.234375 0.09765625 C15.729375 1.58265625 15.729375 1.58265625 16.234375 3.09765625 C16.894375 3.42765625 17.554375 3.75765625 18.234375 4.09765625 C19.234375 7.09765625 19.234375 7.09765625 18.390625 9.25 C14.93096092 12.214531 11.14600017 11.65687867 6.734375 11.66015625 C5.01550571 11.66909539 3.29664348 11.6907047 1.578125 11.7265625 C0.81693359 11.7272876 0.05574219 11.7280127 -0.72851562 11.72875977 C-3.32106512 12.1982399 -4.20054751 13.00701129 -5.765625 15.09765625 C-6.1672451 18.2297248 -6.1672451 18.2297248 -6.015625 21.66015625 C-6.00015625 22.81644531 -5.9846875 23.97273438 -5.96875 25.1640625 C-5.95906273 28.03108268 -5.95906273 28.03108268 -4.765625 30.09765625 C2.164375 30.42765625 9.094375 30.75765625 16.234375 31.09765625 C16.234375 32.08765625 16.234375 33.07765625 16.234375 34.09765625 C17.224375 34.59265625 17.224375 34.59265625 18.234375 35.09765625 C17.234375 38.09765625 17.234375 38.09765625 14.234375 40.09765625 C7.26430901 41.32047484 -0.20329865 42.26226294 -7.015625 40.03515625 C-11.07085538 37.17806212 -14.53148117 33.56594391 -16.765625 29.09765625 C-17.05588192 26.02133324 -17.04350126 22.93609382 -17.078125 19.84765625 C-17.10712891 19.00074219 -17.13613281 18.15382813 -17.16601562 17.28125 C-17.22253031 11.69064315 -16.49505655 8.53284294 -12.765625 4.09765625 C-8.80981705 0.5127053 -5.2230954 -0.03348138 0 0 Z " fill="#0DB565" transform="translate(135.765625,41.90234375)"/>
<path d="M0 0 C1.17691406 -0.01224609 2.35382813 -0.02449219 3.56640625 -0.03710938 C17.69415937 -0.06094698 17.69415937 -0.06094698 22.3125 3.8125 C23.86419552 7.28099586 24.1780205 10.50820607 23.375 14.1875 C21.19925584 16.87855198 19.46434144 18.64282928 16.375 20.1875 C13.49129667 20.25944869 10.63260336 20.28041708 7.75 20.25 C6.94820312 20.24548828 6.14640625 20.24097656 5.3203125 20.23632812 C3.33850994 20.22453168 1.35674567 20.20659605 -0.625 20.1875 C-0.625 23.1575 -0.625 26.1275 -0.625 29.1875 C-4.67773808 30.16998196 -8.46035074 30.34767882 -12.625 30.1875 C-14.45534055 28.35715945 -13.75542797 25.45538008 -13.7578125 23 C-13.75910156 21.74445312 -13.76039062 20.48890625 -13.76171875 19.1953125 C-13.75962402 18.53821289 -13.7575293 17.88111328 -13.75537109 17.20410156 C-13.75002234 15.19588665 -13.75531691 13.18789541 -13.76171875 11.1796875 C-13.76042969 9.92414062 -13.75914063 8.66859375 -13.7578125 7.375 C-13.75612061 5.63283203 -13.75612061 5.63283203 -13.75439453 3.85546875 C-13.44919487 -2.43740273 -4.86216534 0.00261126 0 0 Z M-4.625 6.1875 C-4.625 9.1575 -4.625 12.1275 -4.625 15.1875 C-4.295 15.1875 -3.965 15.1875 -3.625 15.1875 C-3.625 12.2175 -3.625 9.2475 -3.625 6.1875 C-3.955 6.1875 -4.285 6.1875 -4.625 6.1875 Z M19.375 6.1875 C19.375 8.8275 19.375 11.4675 19.375 14.1875 C19.705 14.1875 20.035 14.1875 20.375 14.1875 C20.375 11.5475 20.375 8.9075 20.375 6.1875 C20.045 6.1875 19.715 6.1875 19.375 6.1875 Z M-0.625 7.1875 C-0.625 9.4975 -0.625 11.8075 -0.625 14.1875 C1.02074566 14.21438151 2.66661413 14.23384123 4.3125 14.25 C5.68728516 14.26740234 5.68728516 14.26740234 7.08984375 14.28515625 C9.34093327 14.44699049 9.34093327 14.44699049 10.375 13.1875 C10.54166667 10.6875 10.54166667 10.6875 10.375 8.1875 C9.34093327 6.92800951 9.34093327 6.92800951 7.08984375 7.08984375 C6.17332031 7.10144531 5.25679687 7.11304688 4.3125 7.125 C3.39339844 7.13402344 2.47429687 7.14304687 1.52734375 7.15234375 C0.81707031 7.16394531 0.10679688 7.17554688 -0.625 7.1875 Z M-4.625 20.1875 C-4.625 22.4975 -4.625 24.8075 -4.625 27.1875 C-4.295 27.1875 -3.965 27.1875 -3.625 27.1875 C-3.625 24.8775 -3.625 22.5675 -3.625 20.1875 C-3.955 20.1875 -4.285 20.1875 -4.625 20.1875 Z " fill="#040303" transform="translate(126.625,8.8125)"/>
<path d="M0 0 C4.57243374 0.30785702 4.57243374 0.30785702 7.1875 2 C13.78088048 10.30311478 17.86543319 21.03379956 21.1875 31 C16.5675 31 11.9475 31 7.1875 31 C6.5275 29.68 5.8675 28.36 5.1875 27 C3.5848218 26.89175157 1.98004252 26.81429355 0.375 26.75 C-0.96498047 26.68039063 -0.96498047 26.68039063 -2.33203125 26.609375 C-5.6059495 27.12495268 -5.88790369 28.42400186 -7.8125 31 C-10.44140625 31.6796875 -10.44140625 31.6796875 -13.375 31.875 C-14.34566406 31.95492187 -15.31632813 32.03484375 -16.31640625 32.1171875 C-18.8125 32 -18.8125 32 -20.8125 30 C-18.83953829 26.02940981 -16.86398404 22.06012394 -14.88598633 18.09204102 C-14.21306582 16.74116245 -13.54086282 15.38992622 -12.86938477 14.03833008 C-11.90568155 12.09883291 -10.93942932 10.16062464 -9.97265625 8.22265625 C-9.39136963 7.05484619 -8.81008301 5.88703613 -8.21118164 4.68383789 C-6.03880469 0.51540714 -4.70632808 0.44662663 0 0 Z M6.1875 8 C7.1875 10 7.1875 10 7.1875 10 Z M7.1875 10 C8.1875 12 8.1875 12 8.1875 12 Z M8.1875 12 C9.1875 14 9.1875 14 9.1875 14 Z M9.1875 14 C10.1875 16 10.1875 16 10.1875 16 Z M-0.8125 15 C-0.4825 16.32 -0.1525 17.64 0.1875 19 C0.8475 18.67 1.5075 18.34 2.1875 18 C1.8575 17.01 1.5275 16.02 1.1875 15 C0.5275 15 -0.1325 15 -0.8125 15 Z M10.1875 16 C11.1875 18 11.1875 18 11.1875 18 Z M11.1875 18 C12.1875 20 12.1875 20 12.1875 20 Z M12.1875 20 C13.1875 22 13.1875 22 13.1875 22 Z M13.1875 22 C13.8475 23.32 14.5075 24.64 15.1875 26 C14.8575 24.68 14.5275 23.36 14.1875 22 C13.8575 22 13.5275 22 13.1875 22 Z M15.1875 26 C15.5175 26.99 15.8475 27.98 16.1875 29 C16.1875 28.01 16.1875 27.02 16.1875 26 C15.8575 26 15.5275 26 15.1875 26 Z " fill="#050303" transform="translate(230.8125,7)"/>
<path d="M0 0 C1.25103516 0.02707031 1.25103516 0.02707031 2.52734375 0.0546875 C6.64440957 1.79286321 8.02295529 5.29437079 10.0625 9.125 C10.47056885 9.88232422 10.8786377 10.63964844 11.29907227 11.41992188 C12.52274863 13.74439292 13.70413703 16.0860331 14.875 18.4375 C15.28169922 19.23478516 15.68839844 20.03207031 16.10742188 20.85351562 C16.49091797 21.61986328 16.87441406 22.38621094 17.26953125 23.17578125 C17.6147583 23.86325439 17.95998535 24.55072754 18.31567383 25.2590332 C19.0625 27.125 19.0625 27.125 19.0625 30.125 C17.12851192 30.40085566 15.18996091 30.64487415 13.25 30.875 C12.17105469 31.01421875 11.09210937 31.1534375 9.98046875 31.296875 C7.0625 31.125 7.0625 31.125 5.17578125 29.265625 C4.0625 27.125 4.0625 27.125 4.0625 25.125 C2.26989868 25.18495322 0.47824205 25.2737241 -1.3125 25.375 C-2.31023438 25.42140625 -3.30796875 25.4678125 -4.3359375 25.515625 C-5.19445312 25.71671875 -6.05296875 25.9178125 -6.9375 26.125 C-7.5975 27.445 -8.2575 28.765 -8.9375 30.125 C-13.2275 30.125 -17.5175 30.125 -21.9375 30.125 C-20.52294917 26.95737335 -19.10592591 23.79089105 -17.6875 20.625 C-17.29175781 19.738125 -16.89601563 18.85125 -16.48828125 17.9375 C-15.31752688 15.32729353 -14.12929856 12.72565318 -12.9375 10.125 C-12.41833008 8.95130859 -12.41833008 8.95130859 -11.88867188 7.75390625 C-9.10632951 1.73185016 -6.67142208 -0.34950439 0 0 Z M-3.9375 9.125 C-2.9375 11.125 -2.9375 11.125 -2.9375 11.125 Z M-1.9375 13.125 C-2.5975 14.775 -3.2575 16.425 -3.9375 18.125 C-2.2875 18.125 -0.6375 18.125 1.0625 18.125 C0.4025 16.475 -0.2575 14.825 -0.9375 13.125 C-1.2675 13.125 -1.5975 13.125 -1.9375 13.125 Z M12.0625 22.125 C13.0625 24.125 13.0625 24.125 13.0625 24.125 Z M13.0625 24.125 C13.3925 25.445 13.7225 26.765 14.0625 28.125 C14.7225 27.795 15.3825 27.465 16.0625 27.125 C15.0725 26.135 14.0825 25.145 13.0625 24.125 Z " fill="#040303" transform="translate(41.9375,7.875)"/>
<path d="M0 0 C4.29 0 8.58 0 13 0 C13 6.93 13 13.86 13 21 C18.61 21 24.22 21 30 21 C30 23.64 30 26.28 30 29 C20.1 29 10.2 29 0 29 C0 19.43 0 9.86 0 0 Z M9 2 C9 8.93 9 15.86 9 23 C9.33 23 9.66 23 10 23 C10 16.07 10 9.14 10 2 C9.67 2 9.34 2 9 2 Z M26 23 C27 27 27 27 27 27 Z " fill="#080605" transform="translate(72,9)"/>
<path d="M0 0 C-1.15173355 2.46800047 -2.04783565 4.04783565 -4 6 C-5.83178711 6.28710938 -5.83178711 6.28710938 -8.02734375 6.34375 C-8.81947266 6.37339844 -9.61160156 6.40304688 -10.42773438 6.43359375 C-11.25595703 6.45550781 -12.08417969 6.47742187 -12.9375 6.5 C-14.57186701 6.54344682 -16.20603966 6.59519802 -17.83984375 6.65625 C-18.92833618 6.68428711 -18.92833618 6.68428711 -20.03881836 6.71289062 C-22.31972156 6.90380137 -22.31972156 6.90380137 -25 9 C-25.4772799 11.56411081 -25.4772799 11.56411081 -25.44140625 14.55859375 C-25.46783203 15.66654297 -25.49425781 16.77449219 -25.52148438 17.91601562 C-25.53501953 19.07810547 -25.54855469 20.24019531 -25.5625 21.4375 C-25.59691499 23.72800908 -25.63950793 26.01841411 -25.69140625 28.30859375 C-25.70989624 29.83697876 -25.70989624 29.83697876 -25.72875977 31.39624023 C-26 34 -26 34 -28 37 C-30.625 37.1875 -30.625 37.1875 -33 37 C-33.07455949 32.97990543 -33.12879358 28.96008267 -33.16479492 24.93945312 C-33.17981428 23.57382184 -33.20023608 22.20823824 -33.22631836 20.84277344 C-33.26300137 18.87196095 -33.27818551 16.90078592 -33.29296875 14.9296875 C-33.3086792 13.74616699 -33.32438965 12.56264648 -33.34057617 11.34326172 C-32.95618154 7.56985659 -31.99176662 5.21211331 -30 2 C-26.44451599 -0.37032267 -23.62819429 -0.48099446 -19.5 -0.6875 C-18.79037109 -0.7280249 -18.08074219 -0.7685498 -17.34960938 -0.81030273 C-11.50075959 -1.09098941 -5.80509833 -0.79943091 0 0 Z " fill="#10B466" transform="translate(71,43)"/>
<path d="M0 0 C-1.75 4.875 -1.75 4.875 -4 6 C-5.43513247 6.13905142 -6.87564161 6.22523433 -8.31640625 6.28125 C-9.16267578 6.31863281 -10.00894531 6.35601562 -10.88085938 6.39453125 C-12.67252002 6.46499715 -14.46418672 6.53530898 -16.25585938 6.60546875 C-17.10083984 6.64285156 -17.94582031 6.68023437 -18.81640625 6.71875 C-19.59443604 6.74904297 -20.37246582 6.77933594 -21.17407227 6.81054688 C-23.01810083 6.80798236 -23.01810083 6.80798236 -24 8 C-24 10.64 -24 13.28 -24 16 C-18.39 16.33 -12.78 16.66 -7 17 C-7 17.99 -7 18.98 -7 20 C-10.60389664 20.11601004 -14.20731467 20.18718408 -17.8125 20.25 C-18.83666016 20.28351562 -19.86082031 20.31703125 -20.91601562 20.3515625 C-21.89892578 20.36445312 -22.88183594 20.37734375 -23.89453125 20.390625 C-25.25348511 20.4220459 -25.25348511 20.4220459 -26.63989258 20.45410156 C-29 20 -29 20 -30.7644043 18.18652344 C-32.53025037 15.06166325 -32.87656845 12.57951508 -33 9 C-31.47102022 4.81542377 -29.84541472 2.28321499 -26 0 C-17.96002633 -2.67999122 -8.28342328 -0.72707164 0 0 Z " fill="#0EB666" transform="translate(233,43)"/>
<path d="M0 0 C0.88945312 0.00322266 1.77890625 0.00644531 2.6953125 0.00976562 C4.07589844 0.02233398 4.07589844 0.02233398 5.484375 0.03515625 C6.42023438 0.03966797 7.35609375 0.04417969 8.3203125 0.04882812 C10.62506541 0.06058707 12.92968727 0.07702199 15.234375 0.09765625 C14.484375 4.84765625 14.484375 4.84765625 12.234375 7.09765625 C8.92877492 7.35706433 5.66530237 7.46400477 2.3515625 7.48828125 C-2.70057256 7.65731179 -6.02116372 8.39872033 -9.765625 12.09765625 C-10.75324183 15.15763722 -10.96571664 18.14933201 -11.140625 21.34765625 C-11.20894531 22.188125 -11.27726562 23.02859375 -11.34765625 23.89453125 C-11.51198692 25.96040251 -11.64218303 28.02893909 -11.765625 30.09765625 C-13.085625 30.42765625 -14.405625 30.75765625 -15.765625 31.09765625 C-17.50853609 27.61183406 -17.03506422 23.68867741 -17.078125 19.84765625 C-17.10712891 19.00074219 -17.13613281 18.15382813 -17.16601562 17.28125 C-17.22253031 11.69064315 -16.49505655 8.53284294 -12.765625 4.09765625 C-8.80981705 0.5127053 -5.2230954 -0.03348138 0 0 Z " fill="#1DA668" transform="translate(135.765625,41.90234375)"/>
<path d="M0 0 C0.33 0.66 0.66 1.32 1 2 C1.66 2.33 2.32 2.66 3 3 C5.31636306 5.31636306 4.24969182 11.53441105 4.25097656 14.77807617 C4.14712913 22.74364646 3.33230206 30.23822248 -0.9375 37.125 C-5.15100053 40.95545503 -8.82265406 41.47658919 -14.3828125 41.40234375 C-18.6217921 40.75067972 -21.67182131 38.60304478 -25 36 C-24.01 35.505 -24.01 35.505 -23 35 C-22.34 35.33 -21.68 35.66 -21 36 C-19.21247508 36.14754174 -17.4183716 36.2211522 -15.625 36.25 C-14.19027344 36.28867188 -14.19027344 36.28867188 -12.7265625 36.328125 C-9.59608225 35.95139099 -8.3763224 34.98899232 -6 33 C-5.34 33 -4.68 33 -4 33 C-3.67 32.01 -3.34 31.02 -3 30 C-2.34 30 -1.68 30 -1 30 C-0.67 20.1 -0.34 10.2 0 0 Z " fill="#225235" transform="translate(192,43)"/>
<path d="M0 0 C0.14536813 4.39548491 0.23409948 8.79035087 0.3125 13.1875 C0.35439453 14.43337891 0.39628906 15.67925781 0.43945312 16.96289062 C0.57759594 27.26834436 0.57759594 27.26834436 -2.33984375 30.28125 C-7.52693262 33.63267306 -11.86061214 34.34751252 -18 34 C-18.99 33.67 -19.98 33.34 -21 33 C-20.67 32.01 -20.34 31.02 -20 30 C-16.04 29.34 -12.08 28.68 -8 28 C-5.4215473 21.60758601 -5.27867278 15.05537493 -4.7890625 8.25976562 C-4.71429688 7.34259766 -4.63953125 6.42542969 -4.5625 5.48046875 C-4.47162109 4.22592896 -4.47162109 4.22592896 -4.37890625 2.94604492 C-4.19134766 1.98275269 -4.19134766 1.98275269 -4 1 C-2 0 -2 0 0 0 Z " fill="#05BB63" transform="translate(110,45)"/>
<path d="M0 0 C0.99 0.33 1.98 0.66 3 1 C3.61514196 8.25867508 3.61514196 8.25867508 0.5625 11.9375 C-0.283125 12.618125 -1.12875 13.29875 -2 14 C-2.33 14.33 -2.66 14.66 -3 15 C-6.63899175 15.25156269 -10.29083673 15.18522226 -13.9375 15.1875 C-14.96552734 15.19974609 -15.99355469 15.21199219 -17.05273438 15.22460938 C-18.52516602 15.22750977 -18.52516602 15.22750977 -20.02734375 15.23046875 C-21.38460571 15.23663208 -21.38460571 15.23663208 -22.76928711 15.24291992 C-25 15 -25 15 -27 13 C-26.625 10.875 -26.625 10.875 -26 9 C-25.31373535 8.98018066 -24.6274707 8.96036133 -23.92041016 8.93994141 C-20.82154221 8.84489055 -17.72336706 8.73513153 -14.625 8.625 C-13.54476562 8.5940625 -12.46453125 8.563125 -11.3515625 8.53125 C-10.3203125 8.49257812 -9.2890625 8.45390625 -8.2265625 8.4140625 C-6.79691162 8.36693115 -6.79691162 8.36693115 -5.33837891 8.31884766 C-2.81104824 8.21444204 -2.81104824 8.21444204 -1 6 C-0.60235737 4.01178687 -0.26224651 2.01055661 0 0 Z " fill="#03BD64" transform="translate(228,65)"/>
<path d="M0 0 C0.33 0 0.66 0 1 0 C1 3.3 1 6.6 1 10 C3.27155498 9.91297874 5.54230743 9.80480478 7.8125 9.6875 C9.70935547 9.60048828 9.70935547 9.60048828 11.64453125 9.51171875 C15.13509661 8.97939737 15.85132601 8.60102641 18 6 C20.1875 6.3125 20.1875 6.3125 22 7 C22.6875 8.8125 22.6875 8.8125 23 11 C22 12.625 22 12.625 20 14 C17.35003674 14.2172101 14.94923442 14.28351554 12.3125 14.1875 C11.61060547 14.17396484 10.90871094 14.16042969 10.18554688 14.14648438 C8.45670171 14.11120182 6.72825235 14.05739583 5 14 C4.73445313 14.84304687 4.46890625 15.68609375 4.1953125 16.5546875 C3.84210937 17.65039062 3.48890625 18.74609375 3.125 19.875 C2.77695312 20.96554688 2.42890625 22.05609375 2.0703125 23.1796875 C1 26 1 26 -1 28 C-2.32 28 -3.64 28 -5 28 C-5 27.34 -5 26.68 -5 26 C-4.34 26 -3.68 26 -3 26 C-2.05055855 23.15167564 -1.82434206 21.15112377 -1.71875 18.18359375 C-1.68136719 17.25482422 -1.64398438 16.32605469 -1.60546875 15.36914062 C-1.5350159 13.41081234 -1.46470396 11.45247897 -1.39453125 9.49414062 C-1.33845703 8.10291992 -1.33845703 8.10291992 -1.28125 6.68359375 C-1.25095703 5.83337646 -1.22066406 4.98315918 -1.18945312 4.10717773 C-1 2 -1 2 0 0 Z " fill="#21583D" transform="translate(46,54)"/>
<path d="M0 0 C0.33 0.66 0.66 1.32 1 2 C1.66 2.33 2.32 2.66 3 3 C4 6 4 6 3.15625 8.15234375 C-0.30341408 11.11687475 -4.08837483 10.55922242 -8.5 10.5625 C-10.21886929 10.57143914 -11.93773152 10.59304845 -13.65625 10.62890625 C-14.41744141 10.62963135 -15.17863281 10.63035645 -15.96289062 10.63110352 C-18.55456573 11.10042531 -19.43428739 11.91126104 -21 14 C-21.4018 17.09813238 -21.4018 17.09813238 -21.25 20.5 C-21.23453125 21.6446875 -21.2190625 22.789375 -21.203125 23.96875 C-21.12488069 27.04550934 -21.12488069 27.04550934 -20 30 C-21.9375 29.1875 -21.9375 29.1875 -24 28 C-25.17076902 24.48769293 -25.33569097 21.22411438 -25.4375 17.5625 C-25.48326172 16.89412109 -25.52902344 16.22574219 -25.57617188 15.53710938 C-25.62109375 13.56640625 -25.62109375 13.56640625 -25 10 C-20.59590668 5.71900245 -16.60833665 5.4930568 -10.8125 5.5625 C-10.10158203 5.57474609 -9.39066406 5.58699219 -8.65820312 5.59960938 C-6.31951174 5.61079226 -6.31951174 5.61079226 -3 5 C-0.94157226 2.61217926 -0.94157226 2.61217926 0 0 Z " fill="#126739" transform="translate(151,43)"/>
<path d="M0 0 C0.99 0 1.98 0 3 0 C3.33 6.6 3.66 13.2 4 20 C7.31544299 21.10514766 10.20410111 21.32107631 13.6875 21.5625 C14.86699219 21.64628906 16.04648438 21.73007812 17.26171875 21.81640625 C18.61716797 21.90728516 18.61716797 21.90728516 20 22 C20 23.65 20 25.3 20 27 C13.4 27 6.8 27 0 27 C-0.09087891 24.54433594 -0.09087891 24.54433594 -0.18359375 22.0390625 C-0.26798968 19.9010322 -0.35263815 17.76301186 -0.4375 15.625 C-0.47681641 14.54476563 -0.51613281 13.46453125 -0.55664062 12.3515625 C-0.59853516 11.3203125 -0.64042969 10.2890625 -0.68359375 9.2265625 C-0.72025146 8.27346191 -0.75690918 7.32036133 -0.79467773 6.33837891 C-0.85763465 3.97867651 -0.85763465 3.97867651 -2 2 C-1.34 2 -0.68 2 0 2 C0 1.34 0 0.68 0 0 Z " fill="#030202" transform="translate(77,11)"/>
<path d="M0 0 C2.10209857 3.15314785 2.2434761 3.86103081 2.1953125 7.44921875 C2.18886719 8.29677734 2.18242187 9.14433594 2.17578125 10.01757812 C2.15902344 10.89865234 2.14226562 11.77972656 2.125 12.6875 C2.11597656 13.58017578 2.10695312 14.47285156 2.09765625 15.39257812 C2.07409748 17.59532314 2.04120329 19.79752588 2 22 C1.67 22 1.34 22 1 22 C0.835 23.258125 0.67 24.51625 0.5 25.8125 C-0.14183865 28.36629464 -0.48822468 29.62412674 -2.6328125 31.19921875 C-7.43724657 33.13041284 -11.87658353 33.27446874 -17 33 C-17 31.68 -17 30.36 -17 29 C-15.783125 28.95875 -14.56625 28.9175 -13.3125 28.875 C-10.72260855 28.57704789 -9.38928693 28.34678414 -7.42578125 26.59765625 C-6.24702958 25.09324346 -5.12019642 23.54850681 -4 22 C-3.34 22 -2.68 22 -2 22 C-2.01047363 21.40461426 -2.02094727 20.80922852 -2.03173828 20.19580078 C-2.07323949 17.50557657 -2.09930704 14.81541963 -2.125 12.125 C-2.14175781 11.18785156 -2.15851563 10.25070313 -2.17578125 9.28515625 C-2.18222656 8.38925781 -2.18867188 7.49335937 -2.1953125 6.5703125 C-2.20578613 5.74289551 -2.21625977 4.91547852 -2.22705078 4.06298828 C-2 2 -2 2 0 0 Z " fill="#03BD64" transform="translate(189,46)"/>
<path d="M0 0 C4 2 4 2 5.25 3.75 C6.25828913 6.7748674 6.45341075 8.82612473 6 12 C3.14846463 15.92086113 0.35638897 17.71730081 -4.41796875 18.6484375 C-7.83754921 19.11403847 -11.25219139 19.54703499 -14.6875 19.875 C-15.94949219 19.99617188 -17.21148437 20.11734375 -18.51171875 20.2421875 C-22.62747367 19.9564352 -24.10387022 18.84629198 -27 16 C-26.39003174 15.99589111 -25.78006348 15.99178223 -25.15161133 15.98754883 C-22.37094208 15.95452425 -19.59243843 15.88387432 -16.8125 15.8125 C-15.85279297 15.80669922 -14.89308594 15.80089844 -13.90429688 15.79492188 C-7.91562361 15.64280359 -7.91562361 15.64280359 -2.94921875 12.44921875 C-2.30597656 11.64097656 -1.66273438 10.83273438 -1 10 C-0.34 10 0.32 10 1 10 C0.505 5.05 0.505 5.05 0 0 Z " fill="#3A5741" transform="translate(231,64)"/>
<path d="M0 0 C0.66 0 1.32 0 2 0 C2.90661193 5.97539681 3.06582364 11.59563967 2.75 17.625 C2.72292969 18.44484375 2.69585937 19.2646875 2.66796875 20.109375 C2.34226992 26.6443644 0.94264606 30.96699831 -3.6875 35.8125 C-7.57319576 38.3785255 -10.36545966 39.32209161 -15 39 C-18.97813544 37.95395642 -22.37372612 36.24422068 -25 33 C-24.15888672 33.23783203 -24.15888672 33.23783203 -23.30078125 33.48046875 C-17.8407955 34.71336876 -12.10719399 34.97438108 -7.0625 32.3125 C-3.20309103 29.39825241 -1.29867765 26.97741134 -0.56762695 22.13745117 C-0.54144287 21.11627197 -0.51525879 20.09509277 -0.48828125 19.04296875 C-0.45283203 17.93115234 -0.41738281 16.81933594 -0.38085938 15.67382812 C-0.35830078 14.52333984 -0.33574219 13.37285156 -0.3125 12.1875 C-0.27833984 11.01767578 -0.24417969 9.84785156 -0.20898438 8.64257812 C-0.12667684 5.76181446 -0.05746822 2.88134862 0 0 Z " fill="#284939" transform="translate(111,45)"/>
<path d="M0 0 C0.99 0 1.98 0 3 0 C3 0.66 3 1.32 3 2 C3.66 2 4.32 2 5 2 C3.25 6.875 3.25 6.875 1 8 C-0.35032798 8.13845858 -1.70625639 8.22503885 -3.0625 8.28125 C-3.85914063 8.31863281 -4.65578125 8.35601562 -5.4765625 8.39453125 C-7.15885417 8.46484375 -8.84114583 8.53515625 -10.5234375 8.60546875 C-11.32007813 8.64285156 -12.11671875 8.68023437 -12.9375 8.71875 C-13.66839844 8.74904297 -14.39929688 8.77933594 -15.15234375 8.81054688 C-17.0938577 8.89957573 -17.0938577 8.89957573 -19 10 C-19.33 10.99 -19.66 11.98 -20 13 C-21.32 12.67 -22.64 12.34 -24 12 C-24.125 9.125 -24.125 9.125 -24 6 C-21.51942372 3.51942372 -20.63807536 3.70980995 -17.2109375 3.5859375 C-16.26992187 3.54726563 -15.32890625 3.50859375 -14.359375 3.46875 C-13.37453125 3.4378125 -12.3896875 3.406875 -11.375 3.375 C-10.38242188 3.33632813 -9.38984375 3.29765625 -8.3671875 3.2578125 C-5.91164615 3.1633686 -3.4561159 3.07780125 -1 3 C-0.67 2.01 -0.34 1.02 0 0 Z " fill="#2B5640" transform="translate(232,45)"/>
<path d="M0 0 C1.98 0 3.96 0 6 0 C6 6.93 6 13.86 6 21 C11.61 21 17.22 21 23 21 C23 23.64 23 26.28 23 29 C21.35 29 19.7 29 18 29 C18 27.35 18 25.7 18 24 C13.38 24 8.76 24 4 24 C2.8260447 21.65208941 2.83078388 20.11746336 2.75390625 17.5 C2.72103516 16.613125 2.68816406 15.72625 2.65429688 14.8125 C2.59310298 12.9376233 2.53581057 11.06261519 2.48242188 9.1875 C2.44826172 8.300625 2.41410156 7.41375 2.37890625 6.5 C2.3538501 5.6853125 2.32879395 4.870625 2.30297852 4.03125 C2.17248872 1.77578696 2.17248872 1.77578696 0 0 Z M19 23 C20 27 20 27 20 27 Z " fill="#1B1815" transform="translate(79,9)"/>
<path d="M0 0 C0.93423645 3.01031744 1.04449911 3.86650268 0 7 C-1.0725 6.979375 -2.145 6.95875 -3.25 6.9375 C-7.26330656 6.91009112 -7.26330656 6.91009112 -11 8 C-13.47731466 11.5969551 -13.20382992 14.99318425 -13.125 19.25 C-13.10695313 20.51328125 -13.08890625 21.7765625 -13.0703125 23.078125 C-13.04710938 24.04234375 -13.02390625 25.0065625 -13 26 C-16.875 24.25 -16.875 24.25 -18 22 C-18.2005521 19.71370606 -18.31299364 17.41923545 -18.375 15.125 C-18.42398438 13.89007813 -18.47296875 12.65515625 -18.5234375 11.3828125 C-18 8 -18 8 -15.6015625 5.6171875 C-11.55803741 3.10364488 -8.77899017 2.73638399 -4.09375 2.37890625 C-1.78688902 2.16681223 -1.78688902 2.16681223 0 0 Z " fill="#305C41" transform="translate(104,46)"/>
<path d="M0 0 C3 2 3 2 4 5 C8.08860327 7.56726252 11.18790822 8.61430959 16 8 C18.81780534 6.61114752 18.81780534 6.61114752 21 5 C20.67 6.65 20.34 8.3 20 10 C18.71802734 10.18175781 18.71802734 10.18175781 17.41015625 10.3671875 C15.75306641 10.61855469 15.75306641 10.61855469 14.0625 10.875 C12.96035156 11.03742188 11.85820313 11.19984375 10.72265625 11.3671875 C9.37494141 11.68042969 9.37494141 11.68042969 8 12 C7.67 12.66 7.34 13.32 7 14 C14.56407533 14.20589721 14.56407533 14.20589721 22 13 C21.67 13.66 21.34 14.32 21 15 C15.51198456 16.82933848 9.40962596 16.85816924 4 14.6875 C1 13 1 13 -1 10 C-0.34 10 0.32 10 1 10 C0.649375 9.46375 0.29875 8.9275 -0.0625 8.375 C-1.28924249 5.26725237 -0.72856431 3.20568297 0 0 Z " fill="#12B164" transform="translate(82,64)"/>
<path d="M0 0 C1.65 0.33 3.3 0.66 5 1 C5 10.24 5 19.48 5 29 C3.35 29 1.7 29 0 29 C-1.6877634 25.6244732 -1.18459799 21.83376289 -1.1875 18.125 C-1.19974609 17.30902344 -1.21199219 16.49304688 -1.22460938 15.65234375 C-1.22654297 14.86214844 -1.22847656 14.07195313 -1.23046875 13.2578125 C-1.23457764 12.5373877 -1.23868652 11.81696289 -1.24291992 11.07470703 C-0.96437868 8.69576884 -0.07151443 7.1223653 1 5 C0.69621948 2.31006947 0.69621948 2.31006947 0 0 Z " fill="#2B1C16" transform="translate(195,9)"/>
<path d="M0 0 C1.2065625 0.0309375 1.2065625 0.0309375 2.4375 0.0625 C1.4475 0.5575 1.4475 0.5575 0.4375 1.0625 C0.7675 10.3025 1.0975 19.5425 1.4375 29.0625 C-0.2125 29.0625 -1.8625 29.0625 -3.5625 29.0625 C-3.58715881 25.09319011 -3.60534023 21.12390966 -3.61743164 17.15454102 C-3.62247057 15.80329614 -3.62930177 14.45205674 -3.63793945 13.10083008 C-3.65002419 11.16229566 -3.65519828 9.223722 -3.66015625 7.28515625 C-3.66539307 6.11734619 -3.67062988 4.94953613 -3.67602539 3.74633789 C-3.52118943 0.08588267 -3.52118943 0.08588267 0 0 Z " fill="#010100" transform="translate(164.5625,8.9375)"/>
<path d="M0 0 C-3.4019487 2.09350689 -6.05272412 2.17942163 -10 2 C-10 2.66 -10 3.32 -10 4 C-11.98 4 -13.96 4 -16 4 C-16 4.66 -16 5.32 -16 6 C-17.9375 6.5625 -17.9375 6.5625 -20 7 C-20.33 6.67 -20.66 6.34 -21 6 C-21.66 6 -22.32 6 -23 6 C-23 6.99 -23 7.98 -23 9 C-23.66 9 -24.32 9 -25 9 C-25 18.24 -25 27.48 -25 37 C-25.33 37 -25.66 37 -26 37 C-26.07455949 32.97990543 -26.12879358 28.96008267 -26.16479492 24.93945312 C-26.17981428 23.57382184 -26.20023608 22.20823824 -26.22631836 20.84277344 C-26.26300137 18.87196095 -26.27818551 16.90078592 -26.29296875 14.9296875 C-26.3086792 13.74616699 -26.32438965 12.56264648 -26.34057617 11.34326172 C-25.95618154 7.56985659 -24.99176662 5.21211331 -23 2 C-19.34275786 -0.43816143 -16.31117781 -0.47829921 -12.0625 -0.6875 C-11.34642578 -0.73455078 -10.63035156 -0.78160156 -9.89257812 -0.83007812 C-6.42135238 -1.0263198 -3.31312422 -1.1505105 0 0 Z " fill="#14B060" transform="translate(64,43)"/>
<path d="M0 0 C4.57907197 0.48409517 4.57907197 0.48409517 6.43798828 2.76245117 C6.81165527 3.51502197 7.18532227 4.26759277 7.5703125 5.04296875 C7.99183594 5.86990234 8.41335937 6.69683594 8.84765625 7.54882812 C9.26917969 8.41958984 9.69070312 9.29035156 10.125 10.1875 C10.55425781 11.03892578 10.98351563 11.89035156 11.42578125 12.76757812 C12.25853853 14.42412453 13.0821247 16.08532002 13.89550781 17.75146484 C14.83263048 19.65926762 15.81401897 21.54522649 16.8046875 23.42578125 C18 26 18 26 18 29 C16.35 29 14.7 29 13 29 C13.33 28.01 13.66 27.02 14 26 C12.90556581 23.01133898 12.90556581 23.01133898 11.25 19.875 C10.71890625 18.79992187 10.1878125 17.72484375 9.640625 16.6171875 C8.2084656 13.71623997 8.2084656 13.71623997 5 13 C2.96203308 8.76729947 1.48280846 4.44842538 0 0 Z " fill="#1A1412" transform="translate(43,9)"/>
<path d="M0 0 C0.99 0 1.98 0 3 0 C4.25274038 2.50548077 4.19101089 4.35499751 4.28125 7.15625 C4.31863281 8.17847656 4.35601562 9.20070313 4.39453125 10.25390625 C4.46484375 12.41796875 4.53515625 14.58203125 4.60546875 16.74609375 C4.64285156 17.76832031 4.68023437 18.79054688 4.71875 19.84375 C4.74904297 20.78412109 4.77933594 21.72449219 4.81054688 22.69335938 C4.85800096 25.02641574 4.85800096 25.02641574 6 27 C9.02934491 27.65772428 9.02934491 27.65772428 12 28 C12 28.33 12 28.66 12 29 C8.8125 29.375 8.8125 29.375 5 29 C1.73745994 26.26246639 0.23956061 24.59618836 -0.39770508 20.35009766 C-0.49201696 17.26043032 -0.43611607 14.2134999 -0.3125 11.125 C-0.28994141 10.05507813 -0.26738281 8.98515625 -0.24414062 7.8828125 C-0.18545633 5.25375593 -0.1034118 2.62761418 0 0 Z " fill="#3A5F44" transform="translate(167,45)"/>
<path d="M0 0 C0.02896822 4.43748635 0.04678788 8.87494847 0.0625 13.3125 C0.07087891 14.57513672 0.07925781 15.83777344 0.08789062 17.13867188 C0.09111328 18.34716797 0.09433594 19.55566406 0.09765625 20.80078125 C0.10289307 21.91622314 0.10812988 23.03166504 0.11352539 24.1809082 C0 27 0 27 -1 30 C-1.66 30 -2.32 30 -3 30 C-3 28.02 -3 26.04 -3 24 C-2.67 24 -2.34 24 -2 24 C-1.97310551 21.04160645 -1.95321259 18.08345573 -1.9375 15.125 C-1.92912109 14.28324219 -1.92074219 13.44148438 -1.91210938 12.57421875 C-1.90888672 11.76855469 -1.90566406 10.96289062 -1.90234375 10.1328125 C-1.89710693 9.38918457 -1.89187012 8.64555664 -1.88647461 7.87939453 C-1.88213364 5.90867432 -1.88213364 5.90867432 -3 4 C-4.58403524 5.58403524 -4.21974935 7.2771638 -4.31640625 9.47265625 C-4.35830078 10.37177734 -4.40019531 11.27089844 -4.44335938 12.19726562 C-4.50233398 13.61555664 -4.50233398 13.61555664 -4.5625 15.0625 C-4.62727539 16.4865918 -4.62727539 16.4865918 -4.69335938 17.93945312 C-4.79979276 20.29281353 -4.90181008 22.64628354 -5 25 C-5.66 25 -6.32 25 -7 25 C-7.66 26.32 -8.32 27.64 -9 29 C-9.66 28.67 -10.32 28.34 -11 28 C-10.5153125 27.37222656 -10.030625 26.74445313 -9.53125 26.09765625 C-7.10724381 21.19399067 -7.52983661 16.2485351 -7.47265625 10.86132812 C-7.306192 4.61891858 -7.306192 4.61891858 -5.71875 1.41015625 C-4 0 -4 0 0 0 Z " fill="#20AC67" transform="translate(192,43)"/>
<path d="M0 0 C1.75570312 0.04060547 1.75570312 0.04060547 3.546875 0.08203125 C4.43890625 0.11683594 5.3309375 0.15164062 6.25 0.1875 C5.9375 2.5625 5.9375 2.5625 5.25 5.1875 C1.5132157 7.67868953 -0.49451819 7.3940226 -4.9375 7.3125 C-6.20980469 7.29445313 -7.48210938 7.27640625 -8.79296875 7.2578125 C-10.25669922 7.22300781 -10.25669922 7.22300781 -11.75 7.1875 C-11.39269705 4.59705364 -10.92380296 3.37164837 -9.109375 1.44921875 C-5.94354695 -0.24376546 -3.56752789 -0.10702584 0 0 Z " fill="#15B464" transform="translate(58.75,56.8125)"/>
<path d="M0 0 C7.92 0 15.84 0 24 0 C23.67 8.91 23.34 17.82 23 27 C22.67 27 22.34 27 22 27 C22 18.75 22 10.5 22 2 C20.68 2.33 19.36 2.66 18 3 C18.02320312 3.81082031 18.04640625 4.62164062 18.0703125 5.45703125 C18.19154029 12.89522198 17.62918925 19.74138003 16 27 C15.67 27 15.34 27 15 27 C14.89358951 18.23886925 15.04429526 9.72080577 16 1 C10.72 1 5.44 1 0 1 C0 0.67 0 0.34 0 0 Z " fill="#2BA768" transform="translate(88,43)"/>
<path d="M0 0 C1.65 0 3.3 0 5 0 C6.96572379 3.70446076 8.92124833 7.41421308 10.875 11.125 C11.43058594 12.17171875 11.98617187 13.2184375 12.55859375 14.296875 C13.36103516 15.82441406 13.36103516 15.82441406 14.1796875 17.3828125 C14.91807861 18.78104248 14.91807861 18.78104248 15.67138672 20.20751953 C17.04035463 23.0848174 18.05462722 25.95990082 19 29 C17.35 28.67 15.7 28.34 14 28 C13.87995605 27.44207764 13.75991211 26.88415527 13.63623047 26.30932617 C12.3825792 21.7589473 10.13518247 17.56918951 8.125 13.3125 C7.67769531 12.33732422 7.23039063 11.36214844 6.76953125 10.35742188 C6.33253906 9.43123047 5.89554688 8.50503906 5.4453125 7.55078125 C5.04844238 6.70169189 4.65157227 5.85260254 4.24267578 4.9777832 C3.08892149 2.67683874 3.08892149 2.67683874 0 2 C0 1.34 0 0.68 0 0 Z " fill="#0E0B0D" transform="translate(233,9)"/>
<path d="M0 0 C0.99 0.33 1.98 0.66 3 1 C2.01 8.92 1.02 16.84 0 25 C-0.99 25.33 -1.98 25.66 -3 26 C-3.08745946 22.6043303 -3.14054444 19.20895227 -3.1875 15.8125 C-3.21263672 14.85279297 -3.23777344 13.89308594 -3.26367188 12.90429688 C-3.35493909 4.11222193 -3.35493909 4.11222193 0 0 Z " fill="#03BD62" transform="translate(124,47)"/>
<path d="M0 0 C1 1.33333333 2 2.66666667 3 4 C3.8353125 5.0209375 3.8353125 5.0209375 4.6875 6.0625 C6.32871594 8.48524735 6 10.15634076 6 13 C1.05632546 14.20577428 -2.20862412 13.6290678 -7 12 C-5.63855967 6.80177328 -3.53269829 3.90456127 0 0 Z M-2 6 C-2.66 7.65 -3.32 9.3 -4 11 C-2.35 11 -0.7 11 1 11 C0.34 9.35 -0.32 7.7 -1 6 C-1.33 6 -1.66 6 -2 6 Z " fill="#080607" transform="translate(42,15)"/>
<path d="M0 0 C4.29 0 8.58 0 13 0 C13 0.66 13 1.32 13 2 C11.80375 2.4125 10.6075 2.825 9.375 3.25 C6.39244034 4.34606433 4.42229503 5.3999496 1.75 7.25 C-1 9 -1 9 -3.25 8.6875 C-3.8275 8.460625 -4.405 8.23375 -5 8 C-5.99 8.495 -5.99 8.495 -7 9 C-6.38722388 6.03824877 -5.74627478 4.61941217 -4 2 C-2.68 2 -1.36 2 0 2 C0 1.34 0 0.68 0 0 Z " fill="#03BD64" transform="translate(88,45)"/>
<path d="M0 0 C5.11475738 1.08659489 10.36381187 1.24505265 15.57421875 1.546875 C15.57421875 2.536875 15.57421875 3.526875 15.57421875 4.546875 C8.64421875 4.546875 1.71421875 4.546875 -5.42578125 4.546875 C-6.08578125 2.896875 -6.74578125 1.246875 -7.42578125 -0.453125 C-4.61982637 -1.85610244 -2.8980627 -0.79281567 0 0 Z " fill="#03BD63" transform="translate(210.42578125,58.453125)"/>
<path d="M0 0 C0 6.93 0 13.86 0 21 C-0.99 21.33 -1.98 21.66 -3 22 C-4.32286246 17.03926578 -4.08893197 12.08888488 -4 7 C-4.66 6.67 -5.32 6.34 -6 6 C-2.61538462 0 -2.61538462 0 0 0 Z " fill="#05BD63" transform="translate(165,45)"/>
<path d="M0 0 C1.32 0 2.64 0 4 0 C4.05395478 1.62463842 4.09277195 3.24978541 4.125 4.875 C4.14820312 5.77992187 4.17140625 6.68484375 4.1953125 7.6171875 C4 10 4 10 2 12 C2.32326553 15.59679066 2.32326553 15.59679066 3 19 C2.01 18.67 1.02 18.34 0 18 C-2.42629526 13.01970974 -2.66626984 7.44773578 -2 2 C-1.34 1.34 -0.68 0.68 0 0 Z " fill="#1DB86C" transform="translate(80,55)"/>
<path d="M0 0 C0.66 0.33 1.32 0.66 2 1 C1.75075586 4.58517787 1.47186488 8.16745032 1.1875 11.75 C1.11724609 12.76578125 1.04699219 13.7815625 0.97460938 14.828125 C0.89404297 15.8078125 0.81347656 16.7875 0.73046875 17.796875 C0.66239014 18.69760742 0.59431152 19.59833984 0.52416992 20.52636719 C-0.07361704 23.34740933 -1.12629783 24.84227012 -3 27 C-3.02900455 23.3958502 -3.04680018 19.79173038 -3.0625 16.1875 C-3.07087891 15.16333984 -3.07925781 14.13917969 -3.08789062 13.08398438 C-3.09111328 12.10107422 -3.09433594 11.11816406 -3.09765625 10.10546875 C-3.10289307 9.19949951 -3.10812988 8.29353027 -3.11352539 7.36010742 C-3 5 -3 5 -2 2 C-1.34 2 -0.68 2 0 2 C0 1.34 0 0.68 0 0 Z " fill="#02BD62" transform="translate(43,47)"/>
<path d="M0 0 C0.99 0.33 1.98 0.66 3 1 C2 4 2 4 -1 6 C-9.09540387 7.42024629 -17.84928183 8.76714545 -25 4 C-25.33 3.34 -25.66 2.68 -26 2 C-25.431604 2.16226074 -24.86320801 2.32452148 -24.27758789 2.49169922 C-21.95960524 3.0090151 -19.93002899 3.12927418 -17.55859375 3.1328125 C-16.31239258 3.13474609 -16.31239258 3.13474609 -15.04101562 3.13671875 C-14.18185547 3.13285156 -13.32269531 3.12898438 -12.4375 3.125 C-11.57447266 3.12886719 -10.71144531 3.13273437 -9.82226562 3.13671875 C-8.57799805 3.13478516 -8.57799805 3.13478516 -7.30859375 3.1328125 C-6.55376709 3.13168457 -5.79894043 3.13055664 -5.02124023 3.12939453 C-2.79427073 3.07307558 -2.79427073 3.07307558 0 2 C0 1.34 0 0.68 0 0 Z " fill="#155B3A" transform="translate(151,76)"/>
<path d="M0 0 C0.66 0 1.32 0 2 0 C2.03738281 1.16917969 2.07476562 2.33835938 2.11328125 3.54296875 C2.1789628 5.09117675 2.24540939 6.63935242 2.3125 8.1875 C2.33505859 8.95642578 2.35761719 9.72535156 2.38085938 10.51757812 C2.59790685 15.11503828 3.04741142 18.26748236 6 22 C11.27733813 25.82865707 14.54178686 26.52082364 21 26 C23.84715499 25.56645435 23.84715499 25.56645435 26 25 C24.25062354 27.20421434 23.3705085 27.93982187 20.546875 28.3984375 C14.6197831 28.34876913 10.07222256 28.20895713 5 25 C0.71027629 19.45090786 -0.14513017 14.11995463 -0.0625 7.3125 C-0.05798828 6.61060547 -0.05347656 5.90871094 -0.04882812 5.18554688 C-0.03706927 3.45699462 -0.01913454 1.72848635 0 0 Z " fill="#2AAE6C" transform="translate(159,52)"/>
<path d="M0 0 C6.27 0 12.54 0 19 0 C19 1.32 19 2.64 19 4 C16.04142591 4.05379226 13.08382279 4.09357093 10.125 4.125 C8.86236328 4.15013672 8.86236328 4.15013672 7.57421875 4.17578125 C6.76855469 4.18222656 5.96289062 4.18867187 5.1328125 4.1953125 C4.38918457 4.20578613 3.64555664 4.21625977 2.87939453 4.22705078 C1 4 1 4 -1 2 C-0.67 1.34 -0.34 0.68 0 0 Z " fill="#04BB65" transform="translate(130,44)"/>
<path d="M0 0 C3.3 0 6.6 0 10 0 C10 0.33 10 0.66 10 1 C13.3 1.33 16.6 1.66 20 2 C20 2.99 20 3.98 20 5 C17.41246844 6.29376578 15.45041015 6.16832397 12.5625 6.1875 C11.59441406 6.20167969 10.62632812 6.21585938 9.62890625 6.23046875 C7 6 7 6 4 4 C4 3.01 4 2.02 4 1 C2.68 0.67 1.36 0.34 0 0 Z " fill="#07BB64" transform="translate(210,42)"/>
<path d="M0 0 C7.59 0 15.18 0 23 0 C19.31023587 3.68976413 17.72778291 3.57158335 12.625 3.9375 C10.66433594 4.10572266 10.66433594 4.10572266 8.6640625 4.27734375 C5 4 5 4 0 0 Z " fill="#11512F" transform="translate(204,80)"/>
<path d="M0 0 C5.61 0 11.22 0 17 0 C17 1.32 17 2.64 17 4 C11.72 4 6.44 4 1 4 C0.67 2.68 0.34 1.36 0 0 Z " fill="#01BE62" transform="translate(130,75)"/>
<path d="M0 0 C0.33 0.66 0.66 1.32 1 2 C1.66 2.33 2.32 2.66 3 3 C4 6 4 6 3.13671875 8.171875 C-0.27901467 11.09429408 -3.85369451 10.42429071 -8.1875 10.25 C-9.03248047 10.23195313 -9.87746094 10.21390625 -10.74804688 10.1953125 C-12.83251573 10.14820586 -14.91640144 10.07646233 -17 10 C-17.33 9.34 -17.66 8.68 -18 8 C-16.87980469 7.93941406 -15.75960937 7.87882812 -14.60546875 7.81640625 C-13.13280016 7.73198576 -11.66014456 7.64733851 -10.1875 7.5625 C-9.44951172 7.52318359 -8.71152344 7.48386719 -7.95117188 7.44335938 C-4.76928658 7.25618965 -2.03837622 7.01279207 1 6 C0.01 5.34 -0.98 4.68 -2 4 C-1.34 2.68 -0.68 1.36 0 0 Z " fill="#3F5542" transform="translate(151,43)"/>
<path d="M0 0 C2.52775351 3.79163027 2.22443035 6.80874031 2.125 11.1875 C2.11597656 11.93708984 2.10695312 12.68667969 2.09765625 13.45898438 C2.07412578 15.30612654 2.03825561 17.15310412 2 19 C3.58272601 17.41727399 3.34735747 15.61965997 3.5625 13.4375 C3.64628906 12.61121094 3.73007812 11.78492188 3.81640625 10.93359375 C3.87699219 10.29550781 3.93757813 9.65742187 4 9 C4.33 9 4.66 9 5 9 C5.55353075 22.81776765 5.55353075 22.81776765 2 28 C1.34 28 0.68 28 0 28 C0 18.76 0 9.52 0 0 Z " fill="#0FBD6B" transform="translate(39,52)"/>
<path d="M0 0 C7.26 0 14.52 0 22 0 C22 0.33 22 0.66 22 1 C15.07 1 8.14 1 1 1 C1 1.66 1 2.32 1 3 C1.99 3 2.98 3 4 3 C4 3.66 4 4.32 4 5 C5.26457031 4.9278125 6.52914062 4.855625 7.83203125 4.78125 C9.49218501 4.687456 11.1523414 4.59370842 12.8125 4.5 C13.64587891 4.45230469 14.47925781 4.40460938 15.33789062 4.35546875 C16.14033203 4.31035156 16.94277344 4.26523438 17.76953125 4.21875 C18.50792236 4.17685547 19.24631348 4.13496094 20.00708008 4.09179688 C21.66990494 4.01520467 23.3354121 4 25 4 C22.46945663 6.53054337 21.56451118 6.25683229 18.0625 6.265625 C17.08539063 6.26820312 16.10828125 6.27078125 15.1015625 6.2734375 C14.07804688 6.26570313 13.05453125 6.25796875 12 6.25 C10.97648438 6.25773437 9.95296875 6.26546875 8.8984375 6.2734375 C7.92132813 6.27085938 6.94421875 6.26828125 5.9375 6.265625 C5.03902344 6.26336914 4.14054688 6.26111328 3.21484375 6.25878906 C1 6 1 6 -1 4 C-0.67 2.68 -0.34 1.36 0 0 Z " fill="#14AF65" transform="translate(202,74)"/>
<path d="M0 0 C2.475 0.99 2.475 0.99 5 2 C5.61538462 9.26153846 5.61538462 9.26153846 2.5 13 C1.675 13.66 0.85 14.32 0 15 C-0.99 14.67 -1.98 14.34 -3 14 C-2.67 13.34 -2.34 12.68 -2 12 C-0.71891481 8.15674443 -0.93262204 5.04267778 -1 1 C-0.67 0.67 -0.34 0.34 0 0 Z M1 2 C1 4.64 1 7.28 1 10 C1.33 10 1.66 10 2 10 C2 7.36 2 4.72 2 2 C1.67 2 1.34 2 1 2 Z " fill="#0E0908" transform="translate(145,13)"/>
<path d="M0 0 C5.28 0 10.56 0 16 0 C16.33 1.32 16.66 2.64 17 4 C14.91781638 4.10832169 12.83400871 4.18573541 10.75 4.25 C9.00976562 4.31960937 9.00976562 4.31960937 7.234375 4.390625 C4 4 4 4 0 0 Z " fill="#195E3B" transform="translate(208,65)"/>
<path d="M0 0 C0.99 0 1.98 0 3 0 C2.34 1.32 1.68 2.64 1 4 C-5.6 4 -12.2 4 -19 4 C-19 4.66 -19 5.32 -19 6 C-19.66 6 -20.32 6 -21 6 C-21 5.01 -21 4.02 -21 3 C-18.76292333 1.88146167 -17.38623604 1.82080917 -14.90234375 1.71875 C-14.10119141 1.68136719 -13.30003906 1.64398438 -12.47460938 1.60546875 C-10.77930361 1.53499415 -9.08399106 1.46468239 -7.38867188 1.39453125 C-3.3690936 1.60207038 -3.3690936 1.60207038 0 0 Z " fill="#0D5331" transform="translate(68,47)"/>
<path d="M0 0 C1.32 0.33 2.64 0.66 4 1 C4 3.97 4 6.94 4 10 C7.63 10 11.26 10 15 10 C14.67 10.66 14.34 11.32 14 12 C12.39592672 12.02708567 10.7917215 12.04643483 9.1875 12.0625 C7.84751953 12.07990234 7.84751953 12.07990234 6.48046875 12.09765625 C4 12 4 12 1 11 C0.67 7.37 0.34 3.74 0 0 Z " fill="#14100D" transform="translate(171,9)"/>
<path d="M0 0 C0.33 0 0.66 0 1 0 C1 1.65 1 3.3 1 5 C2.94999129 4.80528889 2.94999129 4.80528889 5 4 C6.28436734 2.0162233 6.28436734 2.0162233 7 0 C7.66 0.33 8.32 0.66 9 1 C8.67 1.33 8.34 1.66 8 2 C7.95907063 4.33297433 7.95758277 6.66705225 8 9 C6.02 9 4.04 9 2 9 C2.66 10.65 3.32 12.3 4 14 C0.98654128 11.56979135 0.06407419 10.28094069 -0.8125 6.4375 C-1 3 -1 3 0 0 Z " fill="#19A762" transform="translate(201,49)"/>
<path d="M0 0 C7.26 0 14.52 0 22 0 C21.67 1.65 21.34 3.3 21 5 C20.34 5 19.68 5 19 5 C19 4.01 19 3.02 19 2 C13.06 2 7.12 2 1 2 C0.67 1.34 0.34 0.68 0 0 Z " fill="#1DA363" transform="translate(130,73)"/>
<path d="M0 0 C0.66 0 1.32 0 2 0 C2.95784079 6.13018106 2.97547621 11.81959734 2.5625 18 C2.51029297 18.87011719 2.45808594 19.74023438 2.40429688 20.63671875 C2.27607439 22.75821809 2.1389652 24.87917725 2 27 C1.67 27 1.34 27 1 27 C-0.3300103 18.02243049 -0.08788039 9.05168034 0 0 Z " fill="#1B633E" transform="translate(111,45)"/>
<path d="M0 0 C0.33 0.99 0.66 1.98 1 3 C-1.34938888 4.17469444 -2.95073205 4.20034889 -5.5703125 4.31640625 C-6.91416016 4.37924805 -6.91416016 4.37924805 -8.28515625 4.44335938 C-9.22230469 4.48267578 -10.15945312 4.52199219 -11.125 4.5625 C-12.06988281 4.60568359 -13.01476562 4.64886719 -13.98828125 4.69335938 C-16.32537092 4.79959072 -18.6625683 4.90163176 -21 5 C-21 4.01 -21 3.02 -21 2 C-20.15236084 1.96241577 -20.15236084 1.96241577 -19.28759766 1.92407227 C-16.73316258 1.80820044 -14.1791045 1.68543463 -11.625 1.5625 C-10.29082031 1.50352539 -10.29082031 1.50352539 -8.9296875 1.44335938 C-8.07890625 1.40146484 -7.228125 1.35957031 -6.3515625 1.31640625 C-5.56604004 1.27974854 -4.78051758 1.24309082 -3.97119141 1.20532227 C-1.92476504 1.109109 -1.92476504 1.109109 0 0 Z " fill="#0B502F" transform="translate(231,47)"/>
<path d="M0 0 C0.33 0.66 0.66 1.32 1 2 C1.66 2.33 2.32 2.66 3 3 C4 4 4 4 4.11352539 5.76586914 C4.10828857 6.51473389 4.10305176 7.26359863 4.09765625 8.03515625 C4.09282227 9.24848633 4.09282227 9.24848633 4.08789062 10.48632812 C4.07951172 11.33646484 4.07113281 12.18660156 4.0625 13.0625 C4.05798828 13.91650391 4.05347656 14.77050781 4.04882812 15.65039062 C4.03700373 17.76695663 4.01906769 19.88348685 4 22 C3.34 22.33 2.68 22.66 2 23 C1.67 17.72 1.34 12.44 1 7 C0.67 7 0.34 7 0 7 C0 4.69 0 2.38 0 0 Z " fill="#225F3E" transform="translate(192,43)"/>
<path d="M0 0 C1.32 0.33 2.64 0.66 4 1 C4.6875 2.8125 4.6875 2.8125 5 5 C3.96875 6.625 3.96875 6.625 2 8 C-1.35546875 8.29296875 -1.35546875 8.29296875 -5.1875 8.1875 C-6.45980469 8.16042969 -7.73210938 8.13335937 -9.04296875 8.10546875 C-10.01878906 8.07066406 -10.99460938 8.03585938 -12 8 C-11.67 7.34 -11.34 6.68 -11 6 C-8.05859375 5.5859375 -8.05859375 5.5859375 -4.4375 5.375 C-3.23996094 5.30023438 -2.04242188 5.22546875 -0.80859375 5.1484375 C0.58166016 5.07496094 0.58166016 5.07496094 2 5 C2 4.01 2 3.02 2 2 C1.34 2 0.68 2 0 2 C0 1.34 0 0.68 0 0 Z " fill="#4C5A4D" transform="translate(64,60)"/>
<path d="M0 0 C1.32 0 2.64 0 4 0 C4.02896822 4.43748635 4.04678788 8.87494847 4.0625 13.3125 C4.07087891 14.57513672 4.07925781 15.83777344 4.08789062 17.13867188 C4.09111328 18.34716797 4.09433594 19.55566406 4.09765625 20.80078125 C4.10289307 21.91622314 4.10812988 23.03166504 4.11352539 24.1809082 C4 27 4 27 3 30 C2.34 30 1.68 30 1 30 C1 28.02 1 26.04 1 24 C1.33 24 1.66 24 2 24 C2 16.74 2 9.48 2 2 C0.02 2.99 0.02 2.99 -2 4 C-1.34 2.68 -0.68 1.36 0 0 Z " fill="#1EA162" transform="translate(188,43)"/>
<path d="M0 0 C3 1 3 1 4 3 C9.61 3.33 15.22 3.66 21 4 C21 4.33 21 4.66 21 5 C19.37191406 5.05607422 19.37191406 5.05607422 17.7109375 5.11328125 C16.26559261 5.17897875 14.82028161 5.24542476 13.375 5.3125 C12.66214844 5.33505859 11.94929687 5.35761719 11.21484375 5.38085938 C6.47413052 5.62006968 3.17684645 6.54264397 -1 9 C-1 1 -1 1 0 0 Z " fill="#15B166" transform="translate(127,44)"/>
<path d="M0 0 C0.33 0.66 0.66 1.32 1 2 C1.66 2 2.32 2 3 2 C3 1.34 3 0.68 3 0 C5.97 0 8.94 0 12 0 C9 2 9 2 5 2 C4.566875 3.7015625 4.566875 3.7015625 4.125 5.4375 C3.75375 6.613125 3.3825 7.78875 3 9 C2.01 9.495 2.01 9.495 1 10 C0.855625 9.2575 0.71125 8.515 0.5625 7.75 C0.21921582 6.07172178 -0.16651881 4.40053228 -0.625 2.75 C-0.74875 2.1725 -0.8725 1.595 -1 1 C-0.67 0.67 -0.34 0.34 0 0 Z " fill="#285F47" transform="translate(46,51)"/>
<path d="M0 0 C4.95 0 9.9 0 15 0 C13 5 13 5 11 6 C9.55151418 6.08342159 8.09929131 6.10732861 6.6484375 6.09765625 C5.79765625 6.09443359 4.946875 6.09121094 4.0703125 6.08789062 C3.18085938 6.07951172 2.29140625 6.07113281 1.375 6.0625 C0.4778125 6.05798828 -0.419375 6.05347656 -1.34375 6.04882812 C-3.56256648 6.03702591 -5.78125018 6.02056155 -8 6 C-8 5.67 -8 5.34 -8 5 C1.9 4.505 1.9 4.505 12 4 C12 3.01 12 2.02 12 1 C8.04 1 4.08 1 0 1 C0 0.67 0 0.34 0 0 Z " fill="#27A669" transform="translate(218,43)"/>
<path d="M0 0 C1.16306443 3.54950034 0.92365049 6.55823948 0.5625 10.25 C0.40974609 11.86648437 0.40974609 11.86648437 0.25390625 13.515625 C0.17011719 14.33546875 0.08632812 15.1553125 0 16 C-2.15199754 14.26929299 -2.93393358 13.39380767 -3.3984375 10.625 C-3.39070313 9.75875 -3.38296875 8.8925 -3.375 8 C-3.38273437 7.13375 -3.39046875 6.2675 -3.3984375 5.375 C-2.93393358 2.60619233 -2.15199754 1.73070701 0 0 Z " fill="#535D52" transform="translate(90,54)"/>
<path d="M0 0 C0.99 0.33 1.98 0.66 3 1 C2.01 1.66 1.02 2.32 0 3 C-0.4772799 5.56411081 -0.4772799 5.56411081 -0.44140625 8.55859375 C-0.46783203 9.66654297 -0.49425781 10.77449219 -0.52148438 11.91601562 C-0.53501953 13.07810547 -0.54855469 14.24019531 -0.5625 15.4375 C-0.59691499 17.72800908 -0.63950793 20.01841411 -0.69140625 22.30859375 C-0.70989624 23.83697876 -0.70989624 23.83697876 -0.72875977 25.39624023 C-1 28 -1 28 -3 31 C-3.66 30.67 -4.32 30.34 -5 30 C-4.67708984 29.28739014 -4.35417969 28.57478027 -4.02148438 27.84057617 C-2.96160274 24.89322369 -2.71926824 22.66828291 -2.65625 19.55078125 C-2.62660156 18.53822266 -2.59695312 17.52566406 -2.56640625 16.48242188 C-2.52189003 14.357427 -2.47762189 12.23242692 -2.43359375 10.10742188 C-2.40394531 9.09873047 -2.37429687 8.09003906 -2.34375 7.05078125 C-2.32505859 6.12950439 -2.30636719 5.20822754 -2.28710938 4.2590332 C-2 2 -2 2 0 0 Z " fill="#1DA865" transform="translate(46,49)"/>
<path d="M0 0 C-0.57234375 0.27585938 -1.1446875 0.55171875 -1.734375 0.8359375 C-3.98964267 1.99467848 -6.10856378 3.26875706 -8.25 4.625 C-8.95640625 5.07101563 -9.6628125 5.51703125 -10.390625 5.9765625 C-10.92171875 6.31429687 -11.4528125 6.65203125 -12 7 C-12.5859375 5.14453125 -12.5859375 5.14453125 -13 3 C-9.78018195 -2.41514853 -5.39887519 -1.06131734 0 0 Z " fill="#0BB562" transform="translate(98,47)"/>
<path d="M0 0 C2.21336414 3.32004621 2.20762974 4.07410932 1.9765625 7.88671875 C1.925 8.82451172 1.8734375 9.76230469 1.8203125 10.72851562 C1.75585938 11.70498047 1.69140625 12.68144531 1.625 13.6875 C1.56828125 14.67556641 1.5115625 15.66363281 1.453125 16.68164062 C1.31166481 19.12182885 1.16025726 21.56098591 1 24 C0.67 24 0.34 24 0 24 C0 17.07 0 10.14 0 3 C-4.12403473 4.64856825 -4.12403473 4.64856825 -6 8 C-5.8125 5.6875 -5.8125 5.6875 -5 3 C-2.4375 1.1875 -2.4375 1.1875 0 0 Z " fill="#2F9962" transform="translate(166,42)"/>
<path d="M0 0 C0.99 0 1.98 0 3 0 C3 0.66 3 1.32 3 2 C3.66 2 4.32 2 5 2 C3.25 6.875 3.25 6.875 1 8 C-0.99960012 8.039992 -3.00047242 8.04346799 -5 8 C-3.625 6.5 -3.625 6.5 -2 5 C-1.34 5 -0.68 5 0 5 C-0.2784375 4.0409375 -0.2784375 4.0409375 -0.5625 3.0625 C-0.706875 2.381875 -0.85125 1.70125 -1 1 C-0.67 0.67 -0.34 0.34 0 0 Z " fill="#3C5142" transform="translate(232,45)"/>
<path d="M0 0 C3.03061766 2.02041177 3.72239767 2.75685563 5 6 C5 6.99 5 7.98 5 9 C4.34 9 3.68 9 3 9 C2.67 9.99 2.34 10.98 2 12 C1.01 11.34 0.02 10.68 -1 10 C-0.34 10 0.32 10 1 10 C0.649375 9.46375 0.29875 8.9275 -0.0625 8.375 C-1.28924249 5.26725237 -0.72856431 3.20568297 0 0 Z " fill="#03BE61" transform="translate(82,64)"/>
<path d="M0 0 C2.25 0 2.25 0 5 1 C6.76178014 3.48947194 8.08336933 6.0894 9 9 C8.67 9.66 8.34 10.32 8 11 C7.34 11 6.68 11 6 11 C5.71125 10.030625 5.4225 9.06125 5.125 8.0625 C4.35785318 4.89335797 4.35785318 4.89335797 2 4 C1.34 3.67 0.68 3.34 0 3 C0 2.01 0 1.02 0 0 Z " fill="#241F1C" transform="translate(43,9)"/>
<path d="M0 0 C0.99 0.66 1.98 1.32 3 2 C3.38394667 4.77262255 3.60342248 7.34323528 3.6875 10.125 C3.72166016 10.87910156 3.75582031 11.63320313 3.79101562 12.41015625 C3.87354278 14.27291201 3.93844711 16.13643326 4 18 C2 17 2 17 1 14 C0.9314505 12.10529184 0.91519628 10.2083166 0.9375 8.3125 C0.94652344 7.31863281 0.95554687 6.32476562 0.96484375 5.30078125 C0.97644531 4.54152344 0.98804687 3.78226563 1 3 C0.01 3.33 -0.98 3.66 -2 4 C-1.34 2.68 -0.68 1.36 0 0 Z " fill="#11AE64" transform="translate(83,52)"/>
<path d="M0 0 C0.66 0.99 1.32 1.98 2 3 C2.33 2.01 2.66 1.02 3 0 C3.6875 1.75 3.6875 1.75 4 4 C2.625 6.0625 2.625 6.0625 1 8 C0.67 8.99 0.34 9.98 0 11 C-0.66 11 -1.32 11 -2 11 C-2.94693195 7.2983569 -3.30443767 5.60887535 -1.5625 2.125 C-1.046875 1.42375 -0.53125 0.7225 0 0 Z " fill="#0F0C0A" transform="translate(31,15)"/>
<path d="M0 0 C0.5625 1.9375 0.5625 1.9375 1 4 C-0.77297261 5.77297261 -3.40548044 5.33700956 -5.8125 5.5 C-9.32774121 5.73977285 -12.61057419 6.01517894 -16 7 C-12.19363176 3.02061502 -9.44394392 2.7871191 -4.09375 2.37890625 C-1.78688902 2.16681223 -1.78688902 2.16681223 0 0 Z " fill="#0E5E33" transform="translate(104,46)"/>
<path d="M0 0 C3.96 0 7.92 0 12 0 C11.67 1.65 11.34 3.3 11 5 C10.01 5.33 9.02 5.66 8 6 C7.67 5.01 7.34 4.02 7 3 C4.69 2.67 2.38 2.34 0 2 C0 1.34 0 0.68 0 0 Z " fill="#16A160" transform="translate(53,57)"/>
<path d="M0 0 C2.97246802 2.54782974 4.41535288 5.45340883 6 9 C6 9.66 6 10.32 6 11 C4.35 10.67 2.7 10.34 1 10 C0.22662374 7.01697727 -0.50652112 4.04311974 -1 1 C-0.67 0.67 -0.34 0.34 0 0 Z " fill="#1A1411" transform="translate(246,27)"/>
<path d="M0 0 C0.33 0 0.66 0 1 0 C1 4.62 1 9.24 1 14 C-0.65 13.67 -2.3 13.34 -4 13 C-5.10844919 9.67465243 -4.84454356 7.37817425 -4 4 C-2.79371992 6.33214148 -1.8345262 8.49642139 -1 11 C-0.67 7.37 -0.34 3.74 0 0 Z " fill="#0C0A09" transform="translate(194,24)"/>
<path d="M0 0 C6.625 -0.25 6.625 -0.25 10 2 C9.34 2 8.68 2 8 2 C8 2.66 8 3.32 8 4 C5.36 4 2.72 4 0 4 C0 2.68 0 1.36 0 0 Z " fill="#02BD61" transform="translate(53,59)"/>
<path d="M0 0 C1.2065625 0.0309375 1.2065625 0.0309375 2.4375 0.0625 C1.95667969 0.58328125 1.47585937 1.1040625 0.98046875 1.640625 C-1.01423865 4.77155813 -1.06568411 7.12618221 -1.25 10.8125 C-1.31574219 11.98296875 -1.38148438 13.1534375 -1.44921875 14.359375 C-1.50529297 15.69742188 -1.50529297 15.69742188 -1.5625 17.0625 C-1.8925 17.0625 -2.2225 17.0625 -2.5625 17.0625 C-2.75636492 14.41698944 -2.94288267 11.77132217 -3.125 9.125 C-3.18107422 8.37025391 -3.23714844 7.61550781 -3.29492188 6.83789062 C-3.42426157 4.91504042 -3.49766912 2.98860452 -3.5625 1.0625 C-2.5625 0.0625 -2.5625 0.0625 0 0 Z " fill="#245235" transform="translate(130.5625,52.9375)"/>
<path d="M0 0 C0.66 0.33 1.32 0.66 2 1 C1.67 2.32 1.34 3.64 1 5 C2.65 5.33 4.3 5.66 6 6 C5.67 6.99 5.34 7.98 5 9 C2.69 8.67 0.38 8.34 -2 8 C-2.33 7.01 -2.66 6.02 -3 5 C-1.5625 2.3125 -1.5625 2.3125 0 0 Z " fill="#110B0D" transform="translate(38,20)"/>
<path d="M0 0 C0 0.99 0 1.98 0 3 C-2.64458379 4.32229189 -4.67761301 4.09677194 -7.625 4.0625 C-8.62789062 4.05347656 -9.63078125 4.04445313 -10.6640625 4.03515625 C-11.43492188 4.02355469 -12.20578125 4.01195313 -13 4 C-13 3.34 -13 2.68 -13 2 C-11.39658445 1.66307215 -9.79223445 1.33058907 -8.1875 1 C-7.29417969 0.814375 -6.40085937 0.62875 -5.48046875 0.4375 C-3 0 -3 0 0 0 Z " fill="#244C33" transform="translate(66,62)"/>
<path d="M0 0 C0.33 0 0.66 0 1 0 C1.33 7.92 1.66 15.84 2 24 C1.01 23.67 0.02 23.34 -1 23 C-1.02911321 19.9166866 -1.04683682 16.83340875 -1.0625 13.75 C-1.07087891 12.87730469 -1.07925781 12.00460938 -1.08789062 11.10546875 C-1.09111328 10.26113281 -1.09433594 9.41679687 -1.09765625 8.546875 C-1.10551147 7.38430176 -1.10551147 7.38430176 -1.11352539 6.19824219 C-1.00036998 4.00716402 -0.60552448 2.10362139 0 0 Z " fill="#181716" transform="translate(195,14)"/>
<path d="M0 0 C1.18851563 0.10183594 2.37703125 0.20367188 3.6015625 0.30859375 C4.51679687 0.39238281 5.43203125 0.47617187 6.375 0.5625 C6.375 1.5525 6.375 2.5425 6.375 3.5625 C5.385 3.2325 4.395 2.9025 3.375 2.5625 C0.79424999 2.53322083 -1.7687024 2.627981 -4.34765625 2.72265625 C-6.625 2.5625 -6.625 2.5625 -8.625 0.5625 C-5.68113377 -0.90943312 -3.25109964 -0.28686173 0 0 Z " fill="#0C0B0A" transform="translate(43.625,30.4375)"/>
<path d="M0 0 C2.5 1.1875 2.5 1.1875 5 3 C5.3125 5.6875 5.3125 5.6875 5 8 C3.35 8 1.7 8 0 8 C-1.43088528 5.13822943 -0.59991697 3.06624227 0 0 Z " fill="#101510" transform="translate(121,30)"/>
<path d="M0 0 C3.3 0 6.6 0 10 0 C9.01 0.495 9.01 0.495 8 1 C8.33 2.32 8.66 3.64 9 5 C6 5 6 5 4 4 C4 3.01 4 2.02 4 1 C2.68 0.67 1.36 0.34 0 0 Z " fill="#049147" transform="translate(210,42)"/>
<path d="M0 0 C0.66 0 1.32 0 2 0 C2 2.97 2 5.94 2 9 C1.01 9.33 0.02 9.66 -1 10 C-1.02689216 8.52093108 -1.04634621 7.04172517 -1.0625 5.5625 C-1.07410156 4.73878906 -1.08570312 3.91507813 -1.09765625 3.06640625 C-1 1 -1 1 0 0 Z " fill="#120E0E" transform="translate(124,15)"/>
<path d="M0 0 C0.66 0 1.32 0 2 0 C2.33 2.97 2.66 5.94 3 9 C1.35 9.33 -0.3 9.66 -2 10 C-1.34 9.67 -0.68 9.34 0 9 C0 6.03 0 3.06 0 0 Z " fill="#1A1413" transform="translate(172,28)"/>
<path d="M0 0 C2.13586678 3.20380017 2.23132175 4.01939967 2.125 7.6875 C2.10695313 8.49574219 2.08890625 9.30398437 2.0703125 10.13671875 C2.04710938 10.75160156 2.02390625 11.36648437 2 12 C1.01 12 0.02 12 -1 12 C-0.67 8.04 -0.34 4.08 0 0 Z " fill="#221C1A" transform="translate(83,16)"/>
<path d="M0 0 C0.67578125 1.765625 0.67578125 1.765625 1 4 C-0.14453125 5.921875 -0.14453125 5.921875 -1.8125 7.75 C-2.62654297 8.67039062 -2.62654297 8.67039062 -3.45703125 9.609375 C-5 11 -5 11 -7 11 C-7 10.01 -7 9.02 -7 8 C-6.01 8 -5.02 8 -4 8 C-4 7.34 -4 6.68 -4 6 C-3 5 -2 4 -1 3 C-0.67 2.01 -0.34 1.02 0 0 Z " fill="#334A39" transform="translate(111,71)"/>
<path d="M0 0 C0.33 1.32 0.66 2.64 1 4 C-3.07369424 6.03684712 -5.58937864 6.0257259 -10 5 C-10 4.67 -10 4.34 -10 4 C-7.98177083 3.54427083 -5.96354167 3.08854167 -3.9453125 2.6328125 C-1.79280036 2.09525572 -1.79280036 2.09525572 0 0 Z " fill="#1CA664" transform="translate(102,69)"/>
<path d="M0 0 C1.98 0 3.96 0 6 0 C5.43628586 3.26954202 4.50037734 4.82575883 2 7 C2 5.68 2 4.36 2 3 C1.34 3 0.68 3 0 3 C0 2.01 0 1.02 0 0 Z " fill="#266049" transform="translate(47,64)"/>
<path d="M0 0 C1.32 0.33 2.64 0.66 4 1 C3.67 3.31 3.34 5.62 3 8 C2.34 8 1.68 8 1 8 C0.67 5.36 0.34 2.72 0 0 Z " fill="#262221" transform="translate(171,9)"/>
<path d="M0 0 C0.79664062 0.24556641 0.79664062 0.24556641 1.609375 0.49609375 C4.53876764 1.11356377 7.25822936 1.09501925 10.25 1.0625 C11.86648437 1.04896484 11.86648437 1.04896484 13.515625 1.03515625 C14.74539062 1.01775391 14.74539062 1.01775391 16 1 C15.67 1.99 15.34 2.98 15 4 C13.06166004 3.91284983 11.1242571 3.80467036 9.1875 3.6875 C8.10855469 3.62949219 7.02960938 3.57148437 5.91796875 3.51171875 C2.82502483 2.96931493 1.86977097 2.44710376 0 0 Z " fill="#0B5D34" transform="translate(86,78)"/>
<path d="M0 0 C0.33 0 0.66 0 1 0 C1.29341888 5.67276511 1.00559652 8.99067246 -2 14 C-2.66 14 -3.32 14 -4 14 C-3.566875 13.0409375 -3.566875 13.0409375 -3.125 12.0625 C-1.6752275 8.11589708 -0.84221938 4.1125393 0 0 Z " fill="#0F542D" transform="translate(111,63)"/>
<path d="M0 0 C0.99 0.66 1.98 1.32 3 2 C2.34 3.98 1.68 5.96 1 8 C0.01 7.34 -0.98 6.68 -2 6 C-1.34 4.02 -0.68 2.04 0 0 Z " fill="#130A0E" transform="translate(228,20)"/>
<path d="M0 0 C2.475 0.99 2.475 0.99 5 2 C5 3.98 5 5.96 5 8 C4.34 8 3.68 8 3 8 C2.01 5.36 1.02 2.72 0 0 Z " fill="#1A1614" transform="translate(145,13)"/>
<path d="M0 0 C0.66 0 1.32 0 2 0 C2 0.99 2 1.98 2 3 C1.01 3 0.02 3 -1 3 C-1 4.32 -1 5.64 -1 7 C-1.99 7 -2.98 7 -4 7 C-2.92598892 4.08482708 -2.22189824 2.22189824 0 0 Z " fill="#255638" transform="translate(105,76)"/>
<path d="M0 0 C1.32 0.33 2.64 0.66 4 1 C4 2.32 4 3.64 4 5 C2.68 5 1.36 5 0 5 C0 3.35 0 1.7 0 0 Z " fill="#04BE61" transform="translate(202,49)"/>
<path d="M0 0 C0.33 0.66 0.66 1.32 1 2 C-2.42094242 4.28062828 -3.68187222 4.21925007 -7.6875 4.125 C-9.17830078 4.09792969 -9.17830078 4.09792969 -10.69921875 4.0703125 C-11.45847656 4.04710937 -12.21773437 4.02390625 -13 4 C-13 3.67 -13 3.34 -13 3 C-12.39671875 2.95101562 -11.7934375 2.90203125 -11.171875 2.8515625 C-10.37265625 2.77679688 -9.5734375 2.70203125 -8.75 2.625 C-7.56664062 2.52058594 -7.56664062 2.52058594 -6.359375 2.4140625 C-3.914123 1.98492887 -2.15163097 1.21399362 0 0 Z " fill="#1E4B2F" transform="translate(151,47)"/>
<path d="M0 0 C0.33 0.66 0.66 1.32 1 2 C1.66 2 2.32 2 3 2 C2.34 3.65 1.68 5.3 1 7 C0.01 6.67 -0.98 6.34 -2 6 C-1.34 4.02 -0.68 2.04 0 0 Z " fill="#53534E" transform="translate(234,45)"/>
<path d="M0 0 C0.33 0.66 0.66 1.32 1 2 C1.66 2.33 2.32 2.66 3 3 C3.33 3.99 3.66 4.98 4 6 C3.34 6.66 2.68 7.32 2 8 C1.34 7.01 0.68 6.02 0 5 C-0.66 4.67 -1.32 4.34 -2 4 C-1.34 2.68 -0.68 1.36 0 0 Z " fill="#2E6246" transform="translate(151,43)"/>
<path d="M0 0 C0.33 0.66 0.66 1.32 1 2 C0.67 2.66 0.34 3.32 0 4 C-3.3 3.67 -6.6 3.34 -10 3 C-8 1 -8 1 -5 0.9375 C-4.01 0.958125 -3.02 0.97875 -2 1 C-1.34 0.67 -0.68 0.34 0 0 Z " fill="#0F0F0C" transform="translate(33,34)"/>
<path d="M0 0 C1.67542976 0.28604898 3.34385343 0.61781233 5 1 C4.67 1.99 4.34 2.98 4 4 C3.34 3.34 2.68 2.68 2 2 C1.34 3.98 0.68 5.96 0 8 C-0.33 8 -0.66 8 -1 8 C-1.04241723 5.66705225 -1.04092937 3.33297433 -1 1 C-0.67 0.67 -0.34 0.34 0 0 Z " fill="#0F0E0D" transform="translate(191,9)"/>
<path d="M0 0 C2.12508244 3.18762365 2.5020163 5.26512223 3 9 C2.01 9 1.02 9 0 9 C0 6.03 0 3.06 0 0 Z " fill="#2A2320" transform="translate(197,29)"/>
</svg>
